<?xml version="1.0" encoding="UTF-8" standalone="no"?>
<svg width="405px" height="99px" viewBox="0 0 405 99" version="1.1" xmlns="http://www.w3.org/2000/svg" xmlns:xlink="http://www.w3.org/1999/xlink" xmlns:sketch="http://www.bohemiancoding.com/sketch/ns">
    <title>Bekk logo</title>
    <defs></defs>
    <g id="Page-1" stroke="none" stroke-width="1" fill="none" fill-rule="evenodd">
        <g id="iPad-Landscape" fill="#FFFFFF">
            <g id="Group" transform="translate(3.000000, 2.000000)">
                <path d="M0.9292,0.98 L35.7822,0.98 C35.7822,0.98 64.5222,-1.449 64.5222,22.741 C64.5222,46.927 39.7462,45.109 35.0162,45.109 L0.7402,45.062 L0.7402,34.36 L36.3102,34.36 C36.3102,34.36 51.9322,35.081 51.9322,22.741 C51.9322,10.824 41.3732,11.66 35.9282,11.66 L0.9222,11.66 L0.9292,0.98 Z" id="Fill-18"></path>
                <path d="M59.8335,53.0884 C65.1285,56.2624 69.8955,61.9754 69.8955,71.3244 C69.8955,95.5094 45.1055,94.1464 40.3765,94.1464 L0.7405,94.1794 L0.7405,83.4644 L41.4105,83.4584 C41.4105,83.4584 57.2045,83.6644 57.3055,71.3244 C57.3755,62.8454 51.9825,56.3924 46.8325,53.0884 L59.8335,53.0884 Z" id="Fill-20"></path>
                <path d="M100.9204,53.0884 L115.8194,53.0884 L115.8194,74.2464 C115.8194,81.1884 119.9864,83.4644 124.1144,83.4644 L164.8394,83.4644 L164.8984,94.3324 L115.7564,94.3324 C110.6454,94.3324 100.9204,91.0234 100.9204,77.2224 L100.9204,53.0884 Z" id="Fill-22" sketch:type="MSShapeGroup"></path>
                <path d="M164.9458,34.4258 C161.2108,34.4258 126.9338,34.4068 122.8058,34.4068 C118.6778,34.4068 115.7558,34.0068 115.7558,29.2728 C115.7558,28.5308 115.7558,17.7668 115.8278,16.9398 C115.8278,11.9718 118.3858,11.6598 122.5138,11.6598 L164.8468,11.6598 L164.8528,0.9798 L116.8248,0.9798 C116.8248,0.9798 100.9208,-0.0822 100.9208,16.9268 L100.9208,28.7938 C100.9208,44.0668 112.3178,45.0618 117.4278,45.0618 L164.8528,45.0618 L164.9458,34.4258 Z" id="Fill-24"></path>
                <path d="M271.5322,1.0039 C269.2902,3.4769 248.4732,28.3639 245.8282,30.9709 C241.4302,35.3079 233.5472,34.3839 227.1632,34.3839 C220.6792,34.3839 219.5702,29.4749 219.5702,26.1389 C219.5702,22.7989 219.5452,4.0229 219.5452,1.0039 L204.7182,1.0039 C204.7182,4.1819 204.7722,30.2519 204.7722,34.3839 C204.7722,37.6689 206.3132,45.1009 219.5162,45.1009 C222.0002,45.1009 244.6932,45.0639 244.9522,45.0619 C248.2252,45.0379 253.1472,43.0689 258.8042,36.3829 C260.4762,34.4049 284.6492,5.3239 288.5752,1.0039 L271.5322,1.0039 Z" id="Fill-26"></path>
                <path d="M256.9385,59.7808 C253.8255,56.4178 250.9905,53.0888 241.2015,53.0888 L219.5165,53.0888 C208.6685,53.0888 204.8085,60.9588 204.8085,65.0918 L204.8085,94.1918 L219.5805,94.1438 C219.5805,91.1248 219.6065,72.4268 219.6065,69.0878 C219.6065,65.7508 220.5855,63.8648 227.0715,63.8648 C233.4565,63.8648 232.4605,63.8988 233.1795,63.8938 C239.2865,63.8538 242.7105,64.1108 245.8645,67.2548 C248.4965,69.8748 270.1275,91.5328 272.6125,94.1488 L289.6105,94.1488 C285.4415,89.6858 258.6985,61.6818 256.9385,59.7808" id="Fill-28"></path>
                <path d="M381.1709,1.0357 C378.9289,3.5087 358.1109,28.3957 355.4669,31.0027 C351.0689,35.3397 343.1859,34.4157 336.8019,34.4157 C330.3169,34.4157 329.2089,29.5067 329.2089,26.1707 C329.2089,22.8307 329.1839,4.0537 329.1839,1.0357 L314.3559,1.0357 C314.3559,4.2137 314.4109,30.2837 314.4109,34.4157 C314.4109,37.6997 315.9519,45.1327 329.1549,45.1327 C331.6389,45.1327 354.3319,45.0947 354.5909,45.0937 C357.8639,45.0697 362.7859,43.1007 368.4419,36.4147 C370.1149,34.4367 394.2879,5.3557 398.2139,1.0357 L381.1709,1.0357 Z" id="Fill-30"></path>
                <path d="M366.5771,59.812 C363.4641,56.449 360.6291,53.121 350.8401,53.121 L329.1551,53.121 C318.3061,53.121 314.4471,60.99 314.4471,65.124 L314.4471,94.224 L329.2191,94.175 C329.2191,91.157 329.2451,72.458 329.2451,69.119 C329.2451,65.783 330.2251,63.896 336.7101,63.896 C343.0951,63.896 342.0981,63.93 342.8181,63.925 C348.9251,63.885 352.3481,64.142 355.5031,67.287 C358.1351,69.906 379.7651,91.565 382.2511,94.181 L399.2491,94.181 C395.0801,89.718 368.3371,61.713 366.5771,59.812" id="Fill-32"></path>
            </g>
        </g>
    </g>
</svg>
