<svg xmlns="http://www.w3.org/2000/svg" viewBox="34 10 148 126">
    <title>Tomt hjerte</title>
    <path d="M170.652 20.533c-6.898-6.736-16.43-10.103-28.598-10.103-3.367 0-6.803.584-10.306 1.75a41.697 41.697 0 0 0-9.776 4.727c-3.015 1.982-5.607 3.843-7.78 5.58a75.14 75.14 0 0 0-6.192 5.54 75.32 75.32 0 0 0-6.192-5.54c-2.173-1.737-4.766-3.597-7.78-5.58a41.72 41.72 0 0 0-9.778-4.726c-3.503-1.166-6.94-1.75-10.306-1.75-12.167 0-21.7 3.368-28.597 10.103S35 36.61 35 48.56c0 3.638.64 7.387 1.915 11.242 1.276 3.856 2.73 7.143 4.36 9.858 1.628 2.715 3.475 5.363 5.54 7.943s3.57 4.36 4.52 5.336c.95.977 1.698 1.683 2.24 2.118l50.84 49.047c.978.978 2.173 1.467 3.585 1.467s2.607-.49 3.585-1.467l50.758-48.885C174.78 72.783 181 60.562 181 48.558c0-11.95-3.45-21.29-10.348-28.025zm-15.398 57.03L108 123.104 60.665 77.48C50.508 67.325 45.43 57.683 45.43 48.558c0-4.4.584-8.283 1.75-11.65 1.17-3.367 2.663-6.043 4.482-8.025 1.82-1.983 4.033-3.598 6.64-4.848 2.608-1.25 5.16-2.09 7.66-2.525 2.497-.434 5.158-.65 7.983-.65 2.824 0 5.866.69 9.125 2.076a41.67 41.67 0 0 1 9.002 5.214c2.743 2.092 5.092 4.047 7.048 5.866 1.955 1.82 3.584 3.49 4.888 5.01.977 1.196 2.31 1.794 3.992 1.794 1.684 0 3.014-.598 3.992-1.793 1.304-1.52 2.934-3.19 4.89-5.01 1.954-1.82 4.304-3.774 7.046-5.867a41.638 41.638 0 0 1 9.004-5.214c3.258-1.385 6.3-2.077 9.125-2.077s5.484.216 7.983.65 5.052 1.276 7.66 2.525c2.606 1.25 4.82 2.866 6.64 4.848 1.818 1.982 3.312 4.658 4.48 8.025 1.166 3.367 1.75 7.25 1.75 11.65 0 9.125-5.104 18.794-15.316 29.004z"/>
</svg>
