<svg xmlns="http://www.w3.org/2000/svg" viewBox="34 10 148 126">
    <title>
        Hjerte
    </title>
    <path d="M170.652 20.532c-6.898-6.736-16.43-10.103-28.598-10.103-3.367 0-6.803.58-10.306 1.75a41.697 41.697 0 0 0-9.776 4.723c-3.015 1.982-5.607 3.843-7.78 5.58a75.14 75.14 0 0 0-6.192 5.54 75.32 75.32 0 0 0-6.192-5.54c-2.173-1.737-4.766-3.597-7.78-5.58a41.72 41.72 0 0 0-9.778-4.726c-3.503-1.168-6.94-1.75-10.306-1.75-12.167 0-21.7 3.366-28.597 10.1S35 36.61 35 48.56c0 3.64.64 7.388 1.915 11.243 1.276 3.858 2.73 7.145 4.36 9.86 1.628 2.715 3.475 5.364 5.54 7.944s3.57 4.358 4.52 5.336c.95.976 1.698 1.682 2.24 2.116l50.84 49.045c.978.98 2.173 1.468 3.585 1.468s2.607-.487 3.585-1.464l50.758-48.886C174.78 72.784 181 60.564 181 48.56c0-11.95-3.45-21.29-10.348-28.026z"/>
</svg>
