<?xml version="1.0" encoding="UTF-8" standalone="no"?>
<svg width="32px" height="32px" viewBox="0 0 32 32" version="1.1" xmlns="http://www.w3.org/2000/svg" xmlns:xlink="http://www.w3.org/1999/xlink">
    <title>History</title>
    <path d="M16,16.2569506 L16,9.60000038 L13,9.60000038 L13,17.6000004 L13.020975,17.6000004 L13,17.6241294 L19.7923862,23.5286606 L21.7605633,21.2645319 L16,16.2569506 Z M1.07030889,10.2343983 C3.38414603,4.24687408 9.19611772,0 16,0 C24.836556,0 32,7.163444 32,16 C32,24.836556 24.836556,32 16,32 C8.66811583,32 2.4880663,27.0684097 0.59599755,20.3413751 L3.0208013,19.7261835 C4.63803346,25.3698066 9.83668755,29.5 16,29.5 C23.4558441,29.5 29.5,23.4558441 29.5,16 C29.5,8.54415588 23.4558441,2.5 16,2.5 C10.3959224,2.5 5.58938663,5.91468221 3.54752842,10.7769108 L4.31695946,10.9454167 L0.862554054,15.1529166 L1.42108547e-14,10 L1.07030889,10.2343983 Z"></path>
</svg>
