<?xml version="1.0" encoding="UTF-8"?>
<svg width="20px" height="21px" viewBox="0 0 20 21" version="1.1" xmlns="http://www.w3.org/2000/svg" xmlns:xlink="http://www.w3.org/1999/xlink">
    <g id="Page-1" stroke="none" stroke-width="1" fill="none" fill-rule="evenodd">
        <path d="M13.3389671,12.2571337 L19.7532617,18.6714282 C20.0754605,18.993627 20.0754605,19.5160144 19.7532617,19.8382132 C19.4310629,20.1604119 18.9086755,20.1604119 18.5864768,19.8382132 L12.1213946,13.373131 C10.8558566,14.3011126 9.2843449,14.8507477 7.58175543,14.8507477 C3.39446753,14.8507477 0,11.5262946 0,7.42537385 C0,3.32445311 3.39446753,0 7.58175543,0 C11.7690433,0 15.1635109,3.32445311 15.1635109,7.42537385 C15.1635109,9.2705069 14.4763407,10.9584532 13.3389671,12.2571337 Z M7.58175543,13.4756785 C10.9936196,13.4756785 13.7594821,10.7668648 13.7594821,7.42537385 C13.7594821,4.08388288 10.9936196,1.37506923 7.58175543,1.37506923 C4.16989121,1.37506923 1.40402878,4.08388288 1.40402878,7.42537385 C1.40402878,10.7668648 4.16989121,13.4756785 7.58175543,13.4756785 Z" id="Combined-Shape-Copy" fill="currentColor"></path>
    </g>
</svg>